<svg width="284" height="140" viewBox="0 0 284 140" fill="none" xmlns="http://www.w3.org/2000/svg">
<rect opacity="0.3" width="284" height="140" rx="8" fill="#F0F0F0"/>
<path d="M245.577 62.5967H250.821L243.905 81.5967C241.929 87.0687 238.699 89.4627 233.873 89.1967V84.6367C236.571 84.6747 237.939 83.5347 238.851 80.9887L231.061 62.5967H236.419L241.359 75.3647L245.577 62.5967Z" fill="#969DA0"/>
<path d="M222.23 62.0647C226.258 62.0647 229.412 64.8767 229.412 69.9307V81.5967H224.51V70.5387C224.51 67.9547 222.952 66.6247 220.748 66.6247C218.354 66.6247 216.568 68.0307 216.568 71.3367V81.5967H211.666V62.5967H216.568V64.7247C217.708 63.0147 219.684 62.0647 222.23 62.0647Z" fill="#969DA0"/>
<path d="M202.319 62.5967H207.221V81.5967H202.319V79.3547C200.951 81.0647 198.899 82.1287 196.125 82.1287C191.071 82.1287 186.891 77.7587 186.891 72.0967C186.891 66.4347 191.071 62.0647 196.125 62.0647C198.899 62.0647 200.951 63.1287 202.319 64.8387V62.5967ZM197.037 77.4547C200.077 77.4547 202.319 75.2887 202.319 72.0967C202.319 68.9047 200.077 66.7387 197.037 66.7387C194.035 66.7387 191.793 68.9047 191.793 72.0967C191.793 75.2887 194.035 77.4547 197.037 77.4547Z" fill="#969DA0"/>
<path d="M175.15 62.0647C180.242 62.0647 184.422 66.4347 184.422 72.0967C184.422 77.7587 180.242 82.1287 175.15 82.1287C172.376 82.1287 170.362 81.1027 168.994 79.3547V89.1967H164.092V62.5967H168.994V64.8387C170.362 63.0907 172.376 62.0647 175.15 62.0647ZM174.238 77.4547C177.278 77.4547 179.52 75.2887 179.52 72.0967C179.52 68.9047 177.278 66.7387 174.238 66.7387C171.236 66.7387 168.994 68.9047 168.994 72.0967C168.994 75.2887 171.236 77.4547 174.238 77.4547Z" fill="#969DA0"/>
<path d="M152.746 62.0647C157.078 62.0647 159.928 65.1427 159.928 69.8927V81.5967H155.026V70.2347C155.026 67.9927 153.886 66.6247 151.834 66.6247C149.668 66.6247 148.3 68.0687 148.3 70.9187V81.5967H143.398V70.2347C143.398 67.9927 142.258 66.6247 140.206 66.6247C138.116 66.6247 136.634 68.0687 136.634 70.9187V81.5967H131.732V62.5967H136.634V64.6107C137.698 63.0147 139.484 62.0647 141.916 62.0647C144.272 62.0647 146.02 63.0527 147.084 64.8007C148.262 63.0907 150.162 62.0647 152.746 62.0647Z" fill="#969DA0"/>
<path d="M118.214 82.1287C112.628 82.1287 108.182 77.7587 108.182 72.0967C108.182 66.4347 112.628 62.0647 118.214 62.0647C123.8 62.0647 128.284 66.4347 128.284 72.0967C128.284 77.7587 123.8 82.1287 118.214 82.1287ZM118.214 77.3407C121.14 77.3407 123.382 75.1747 123.382 72.0967C123.382 69.0187 121.14 66.8527 118.214 66.8527C115.326 66.8527 113.084 69.0187 113.084 72.0967C113.084 75.1747 115.326 77.3407 118.214 77.3407Z" fill="#969DA0"/>
<path d="M98.2859 82.1287C92.5099 82.1287 88.2539 77.7587 88.2539 72.0967C88.2539 66.4347 92.5099 62.0647 98.2859 62.0647C102.01 62.0647 105.24 64.0407 106.798 66.9667L102.58 69.4367C101.82 67.8787 100.186 66.8907 98.2479 66.8907C95.3219 66.8907 93.1559 69.0567 93.1559 72.0967C93.1559 75.0987 95.3219 77.2647 98.2479 77.2647C100.224 77.2647 101.858 76.3147 102.618 74.7567L106.874 77.1887C105.24 80.1527 102.01 82.1287 98.2859 82.1287Z" fill="#969DA0"/>
<path fill-rule="evenodd" clip-rule="evenodd" d="M46.4198 51.5007C44.7802 51.5007 43.4511 52.8299 43.4511 54.4694V63.7417H34.0077C32.3682 63.7417 31.0391 65.0709 31.0391 66.7104V88.5985C31.0391 90.2381 32.3682 91.5672 34.0077 91.5672H55.6358C57.2753 91.5672 58.6045 90.2381 58.6045 88.5985V79.3262H68.0478C69.6873 79.3262 71.0165 77.9971 71.0165 76.3575V54.4694C71.0165 52.8299 69.6873 51.5007 68.0478 51.5007H46.4198ZM58.6045 79.3262V66.7104C58.6045 65.0709 57.2753 63.7417 55.6358 63.7417H43.4511V76.3575C43.4511 77.9971 44.7802 79.3262 46.4198 79.3262H58.6045Z" fill="#969DA0"/>
</svg>
