<svg width="284" height="140" viewBox="0 0 284 140" fill="none" xmlns="http://www.w3.org/2000/svg">
<rect opacity="0.3" width="284" height="140" rx="8" fill="#F0F0F0"/>
<path d="M220.693 62.0925C225.517 62.0925 229.477 66.2325 229.477 71.5965C229.477 76.9605 225.517 81.1005 220.693 81.1005C218.065 81.1005 216.157 80.1285 214.861 78.4725V87.7965H210.217V62.5965H214.861V64.7205C216.157 63.0645 218.065 62.0925 220.693 62.0925ZM219.829 76.6725C222.709 76.6725 224.833 74.6205 224.833 71.5965C224.833 68.5725 222.709 66.5205 219.829 66.5205C216.985 66.5205 214.861 68.5725 214.861 71.5965C214.861 74.6205 216.985 76.6725 219.829 76.6725Z" fill="#969DA0"/>
<path d="M201.319 62.5967H205.963V80.5967H201.319V78.5807C200.239 80.2007 198.367 81.1007 195.955 81.1007C192.139 81.1007 189.151 78.4367 189.151 73.6487V62.5967H193.795V73.0727C193.795 75.5207 195.271 76.7807 197.359 76.7807C199.627 76.7807 201.319 75.4487 201.319 72.3167V62.5967Z" fill="#969DA0"/>
<path d="M185.884 67.0606H181.816V74.5486C181.816 76.4926 183.22 76.5286 185.884 76.3846V80.5966C179.368 81.3166 177.172 79.4086 177.172 74.5486V67.0606H174.04V62.5966H177.172V58.9606L181.816 57.5566V62.5966H185.884V67.0606Z" fill="#969DA0"/>
<path d="M166.908 65.6926C167.844 63.2446 170.112 62.2366 172.38 62.2366V67.4206C169.968 67.1326 166.908 68.2126 166.908 71.9926V80.5966H162.264V62.5966H166.908V65.6926Z" fill="#969DA0"/>
<path d="M153.408 62.5965H158.052V80.5965H153.408V78.4725C152.112 80.0925 150.168 81.1005 147.54 81.1005C142.752 81.1005 138.792 76.9605 138.792 71.5965C138.792 66.2325 142.752 62.0925 147.54 62.0925C150.168 62.0925 152.112 63.1005 153.408 64.7205V62.5965ZM148.404 76.6725C151.284 76.6725 153.408 74.6205 153.408 71.5965C153.408 68.5725 151.284 66.5205 148.404 66.5205C145.56 66.5205 143.436 68.5725 143.436 71.5965C143.436 74.6205 145.56 76.6725 148.404 76.6725Z" fill="#969DA0"/>
<path d="M137.017 67.0606H132.949V74.5486C132.949 76.4926 134.353 76.5286 137.017 76.3846V80.5966C130.501 81.3166 128.305 79.4086 128.305 74.5486V67.0606H125.173V62.5966H128.305V58.9606L132.949 57.5566V62.5966H137.017V67.0606Z" fill="#969DA0"/>
<path d="M114.973 67.7085C114.973 70.3725 124.261 68.7165 124.261 75.3405C124.261 79.2285 120.877 81.1005 117.025 81.1005C113.425 81.1005 110.761 79.5885 109.465 76.8165L113.497 74.5485C114.001 76.0245 115.225 76.8885 117.025 76.8885C118.501 76.8885 119.509 76.3845 119.509 75.3405C119.509 72.7125 110.221 74.1525 110.221 67.8165C110.221 64.1445 113.353 62.0925 117.061 62.0925C119.977 62.0925 122.497 63.4245 123.901 65.9085L119.941 68.0685C119.401 66.9165 118.393 66.2325 117.061 66.2325C115.909 66.2325 114.973 66.7365 114.973 67.7085Z" fill="#969DA0"/>
<path d="M66.5339 73.422L58.4008 81.6385C57.2708 82.7801 55.4238 82.772 54.3038 81.6205C53.2081 80.4939 53.2223 78.6955 54.3356 77.5863L65.2398 66.7231C66.4206 65.5468 68.3297 65.5449 69.5128 66.7188L74.6716 71.8377L83.3267 63.0694H77.4435C75.9126 63.0694 74.6716 61.8284 74.6716 60.2975C74.6716 58.7667 75.9126 57.5256 77.4435 57.5256H89.9699C91.6434 57.5256 93.0001 58.8823 93.0001 60.5558V72.9691C93.0001 74.5624 91.7084 75.8541 90.1151 75.8541C88.5217 75.8541 87.23 74.5624 87.23 72.9691V67.0859L77.1925 77.0782C75.7914 78.473 73.5325 78.4927 72.1072 77.1227L68.2353 73.4008C67.7577 72.9417 67 72.9511 66.5339 73.422Z" fill="#969DA0"/>
</svg>
