<svg width="284" height="140" viewBox="0 0 284 140" fill="none" xmlns="http://www.w3.org/2000/svg">
<rect opacity="0.3" width="284" height="140" rx="8" fill="#F0F0F0"/>
<path d="M226.537 82.0081C224.534 82.0081 222.779 81.5828 221.27 80.7324C219.761 79.8544 218.595 78.6336 217.772 77.0698C216.949 75.506 216.537 73.6678 216.537 71.5553C216.537 69.4703 216.949 67.6458 217.772 66.082C218.595 64.4908 219.761 63.2562 221.27 62.3783C222.779 61.4729 224.534 61.0203 226.537 61.0203C228.567 61.0203 230.323 61.4729 231.805 62.3783C233.314 63.2837 234.48 64.532 235.303 66.1232C236.126 67.687 236.537 69.484 236.537 71.5142C236.537 71.816 236.524 72.1177 236.496 72.4195C236.496 72.6939 236.469 72.9271 236.414 73.1191H220.94V69.0862H232.34L231.517 71.0203C231.517 69.3194 231.105 67.9339 230.282 66.8639C229.486 65.794 228.238 65.259 226.537 65.259C225.056 65.259 223.862 65.7254 222.957 66.6582C222.052 67.5635 221.599 68.7844 221.599 70.3207V72.5018C221.599 74.1205 222.052 75.3962 222.957 76.329C223.89 77.2344 225.152 77.6871 226.743 77.6871C228.142 77.6871 229.24 77.399 230.035 76.8229C230.831 76.2467 231.517 75.5334 232.093 74.6829L235.838 76.8229C234.932 78.4964 233.698 79.7858 232.134 80.6912C230.598 81.5691 228.732 82.0081 226.537 82.0081Z" fill="#969DA0"/>
<path d="M207.979 61.4729L209.337 67.0285V81.5966H203.946V61.4729H207.979ZM208.226 69.7858L207.238 69.3331V65.2178L207.609 64.7651C207.91 64.2713 208.363 63.7363 208.967 63.1602C209.598 62.5841 210.311 62.0902 211.107 61.6787C211.93 61.2397 212.78 61.0203 213.658 61.0203C214.097 61.0203 214.495 61.0477 214.851 61.1026C215.208 61.1574 215.482 61.2535 215.675 61.3906V66.2878H214.358C212.574 66.2878 211.203 66.5759 210.242 67.152C209.282 67.7007 208.61 68.5786 208.226 69.7858Z" fill="#969DA0"/>
<path d="M187.866 82.0906C186.357 82.0906 185.15 81.8574 184.245 81.391C183.339 80.9246 182.64 80.3073 182.146 79.5391C181.68 78.7435 181.364 77.8382 181.2 76.8231C181.035 75.808 180.953 74.7517 180.953 73.6543V61.4731H186.344V73.6955C186.344 74.93 186.604 75.7531 187.126 76.1646C187.674 76.5761 188.319 76.7819 189.06 76.7819C189.746 76.7819 190.431 76.6585 191.117 76.4115C191.803 76.1646 192.448 75.808 193.051 75.3416C193.683 74.8477 194.204 74.2853 194.615 73.6543L195.274 76.4938H193.957V61.4731H199.348V81.5968H195.315L194.204 77.7696L195.932 77.8107C195.246 78.6063 194.464 79.3334 193.586 79.9918C192.736 80.6503 191.817 81.1715 190.829 81.5556C189.869 81.9123 188.881 82.0906 187.866 82.0906Z" fill="#969DA0"/>
<path d="M173.843 81.967C171.786 81.967 170.153 81.432 168.946 80.3621C167.766 79.2647 167.176 77.5225 167.176 75.1357V61.7199L167.094 61.473L168.205 56.7405H172.567V74.2715C172.567 75.1494 172.773 75.7941 173.185 76.2057C173.624 76.5897 174.172 76.7818 174.831 76.7818C175.27 76.7818 175.668 76.7544 176.024 76.6995C176.381 76.6172 176.696 76.5349 176.971 76.4526V81.4732C176.532 81.6378 176.065 81.7613 175.572 81.8436C175.078 81.9259 174.502 81.967 173.843 81.967ZM164.049 66.4525V61.473H176.971V66.4525H164.049Z" fill="#969DA0"/>
<path d="M154.839 61.0203C156.21 61.0203 157.308 61.2535 158.131 61.7199C158.981 62.1863 159.612 62.8173 160.024 63.6129C160.463 64.4085 160.751 65.3138 160.888 66.3289C161.025 67.3166 161.094 68.3454 161.094 69.4154V81.5966H155.703V69.3742C155.703 68.1397 155.456 67.3166 154.962 66.9051C154.496 66.4936 153.892 66.2878 153.151 66.2878C152.465 66.2878 151.766 66.425 151.053 66.6993C150.339 66.9462 149.667 67.3166 149.036 67.8104C148.433 68.2768 147.911 68.8118 147.472 69.4154L146.773 66.617H148.131V81.5966H142.74V61.4729H146.773L147.884 65.3413L146.155 65.259C146.869 64.4359 147.678 63.7089 148.583 63.0779C149.516 62.4469 150.504 61.9531 151.546 61.5964C152.589 61.2123 153.686 61.0203 154.839 61.0203Z" fill="#969DA0"/>
<path d="M129.443 82.0081C127.44 82.0081 125.684 81.5828 124.175 80.7324C122.666 79.8544 121.501 78.6336 120.677 77.0698C119.854 75.506 119.443 73.6678 119.443 71.5553C119.443 69.4703 119.854 67.6458 120.677 66.082C121.501 64.4908 122.666 63.2562 124.175 62.3783C125.684 61.4729 127.44 61.0203 129.443 61.0203C131.473 61.0203 133.229 61.4729 134.71 62.3783C136.219 63.2837 137.385 64.532 138.208 66.1232C139.032 67.687 139.443 69.484 139.443 71.5142C139.443 71.816 139.429 72.1177 139.402 72.4195C139.402 72.6939 139.374 72.9271 139.32 73.1191H123.846V69.0862H135.245L134.422 71.0203C134.422 69.3194 134.011 67.9339 133.188 66.8639C132.392 65.794 131.144 65.259 129.443 65.259C127.961 65.259 126.768 65.7254 125.863 66.6582C124.957 67.5635 124.505 68.7844 124.505 70.3207V72.5018C124.505 74.1205 124.957 75.3962 125.863 76.329C126.795 77.2344 128.057 77.6871 129.649 77.6871C131.048 77.6871 132.145 77.399 132.941 76.8229C133.737 76.2467 134.422 75.5334 134.999 74.6829L138.743 76.8229C137.838 78.4964 136.604 79.7858 135.04 80.6912C133.503 81.5691 131.638 82.0081 129.443 82.0081Z" fill="#969DA0"/>
<path d="M118.618 61.4731L111.252 81.5968H106.066L98.3296 61.4731H104.009L109.276 76.8642H108L113.062 61.4731H118.618Z" fill="#969DA0"/>
<path fill-rule="evenodd" clip-rule="evenodd" d="M59.6032 49.5967C58.9019 49.5967 58.3333 50.1652 58.3333 50.8665L58.3333 62.93C50.9695 62.93 45 68.8995 45 76.2633C45 83.6271 50.9695 89.5967 58.3333 89.5967H70.3968C71.0981 89.5967 71.6667 89.0282 71.6667 88.3268L71.6667 76.2633C79.0305 76.2633 85 70.2938 85 62.93C85 55.5662 79.0305 49.5967 71.6667 49.5967H59.6032ZM71.6667 76.2633L71.6667 64.1999C71.6667 63.4985 71.0981 62.93 70.3968 62.93H58.3333L58.3333 74.9935C58.3333 75.6948 58.9019 76.2633 59.6032 76.2633H71.6667Z" fill="#969DA0"/>
<path d="M59.4603 49.5967C58.838 49.5967 58.3335 50.1011 58.3335 50.7234L58.3335 62.93H70.5401C71.1624 62.93 71.6668 63.4345 71.6668 64.0568L71.6668 76.2633C79.0306 76.2633 85.0002 70.2938 85.0002 62.93C85.0002 55.5662 79.0306 49.5967 71.6668 49.5967H59.4603Z" fill="#969DA0"/>
</svg>
