<svg width="284" height="140" viewBox="0 0 284 140" fill="none" xmlns="http://www.w3.org/2000/svg">
<rect opacity="0.3" width="284" height="140" rx="8" fill="#F0F0F0"/>
<path d="M245.305 69.2413L240.319 69.5482C240.234 69.122 240.05 68.7385 239.769 68.3976C239.488 68.0482 239.117 67.7712 238.657 67.5666C238.205 67.3536 237.664 67.247 237.033 67.247C236.189 67.247 235.478 67.426 234.898 67.784C234.319 68.1334 234.029 68.6021 234.029 69.1902C234.029 69.659 234.216 70.0553 234.591 70.3791C234.966 70.703 235.61 70.9629 236.522 71.159L240.076 71.8749C241.985 72.2669 243.408 72.8976 244.346 73.7669C245.283 74.6362 245.752 75.7783 245.752 77.193C245.752 78.48 245.373 79.6092 244.614 80.5808C243.864 81.5524 242.833 82.3109 241.52 82.8564C240.216 83.3933 238.712 83.6618 237.008 83.6618C234.408 83.6618 232.337 83.1206 230.795 82.0382C229.261 80.9473 228.361 79.4644 228.097 77.5894L233.454 77.3081C233.616 78.1007 234.008 78.7058 234.63 79.1234C235.252 79.5325 236.049 79.7371 237.02 79.7371C237.975 79.7371 238.742 79.5538 239.322 79.1874C239.91 78.8124 240.208 78.3308 240.216 77.7428C240.208 77.2484 239.999 76.8436 239.59 76.5283C239.181 76.2044 238.55 75.9573 237.698 75.7868L234.297 75.1092C232.38 74.7257 230.952 74.0609 230.015 73.1149C229.086 72.1689 228.621 70.9629 228.621 69.497C228.621 68.2357 228.962 67.149 229.644 66.2371C230.334 65.3252 231.302 64.622 232.546 64.1277C233.799 63.6334 235.265 63.3862 236.944 63.3862C239.424 63.3862 241.376 63.9104 242.799 64.9587C244.231 66.007 245.066 67.4345 245.305 69.2413Z" fill="#969DA0"/>
<path d="M225.09 69.2413L220.104 69.5482C220.019 69.122 219.835 68.7385 219.554 68.3976C219.273 68.0482 218.902 67.7712 218.442 67.5666C217.99 67.3536 217.449 67.247 216.818 67.247C215.975 67.247 215.263 67.426 214.683 67.784C214.104 68.1334 213.814 68.6021 213.814 69.1902C213.814 69.659 214.002 70.0553 214.377 70.3791C214.752 70.703 215.395 70.9629 216.307 71.159L219.861 71.8749C221.77 72.2669 223.193 72.8976 224.131 73.7669C225.068 74.6362 225.537 75.7783 225.537 77.193C225.537 78.48 225.158 79.6092 224.399 80.5808C223.649 81.5524 222.618 82.3109 221.306 82.8564C220.002 83.3933 218.497 83.6618 216.793 83.6618C214.193 83.6618 212.122 83.1206 210.58 82.0382C209.046 80.9473 208.147 79.4644 207.882 77.5894L213.239 77.3081C213.401 78.1007 213.793 78.7058 214.415 79.1234C215.037 79.5325 215.834 79.7371 216.806 79.7371C217.76 79.7371 218.527 79.5538 219.107 79.1874C219.695 78.8124 219.993 78.3308 220.002 77.7428C219.993 77.2484 219.784 76.8436 219.375 76.5283C218.966 76.2044 218.335 75.9573 217.483 75.7868L214.083 75.1092C212.165 74.7257 210.737 74.0609 209.8 73.1149C208.871 72.1689 208.406 70.9629 208.406 69.497C208.406 68.2357 208.747 67.149 209.429 66.2371C210.12 65.3252 211.087 64.622 212.331 64.1277C213.584 63.6334 215.05 63.3862 216.729 63.3862C219.209 63.3862 221.161 63.9104 222.584 64.9587C224.016 66.007 224.851 67.4345 225.09 69.2413Z" fill="#969DA0"/>
<path d="M196.185 83.6618C194.165 83.6618 192.426 83.2527 190.969 82.4345C189.52 81.6078 188.404 80.4402 187.619 78.9317C186.835 77.4146 186.443 75.6206 186.443 73.5496C186.443 71.5297 186.835 69.757 187.619 68.2314C188.404 66.7058 189.507 65.5169 190.931 64.6646C192.362 63.8124 194.041 63.3862 195.968 63.3862C197.263 63.3862 198.469 63.595 199.585 64.0127C200.71 64.4217 201.691 65.0396 202.526 65.8663C203.369 66.693 204.026 67.7328 204.494 68.9857C204.963 70.23 205.198 71.6874 205.198 73.3578V74.8536H188.617V71.4786H200.071C200.071 70.6945 199.901 69.9999 199.56 69.3948C199.219 68.7896 198.746 68.3166 198.141 67.9757C197.544 67.6263 196.85 67.4516 196.057 67.4516C195.23 67.4516 194.497 67.6433 193.858 68.0269C193.227 68.4019 192.733 68.909 192.375 69.5482C192.017 70.1788 191.834 70.882 191.825 71.6575V74.8663C191.825 75.8379 192.004 76.6774 192.362 77.3848C192.729 78.0922 193.244 78.6376 193.909 79.0212C194.574 79.4047 195.362 79.5965 196.274 79.5965C196.879 79.5965 197.433 79.5112 197.936 79.3408C198.439 79.1703 198.869 78.9146 199.227 78.5737C199.585 78.2328 199.858 77.8152 200.046 77.3209L205.083 77.6533C204.827 78.8635 204.303 79.9203 203.51 80.8237C202.726 81.7186 201.712 82.4175 200.468 82.9203C199.232 83.4146 197.804 83.6618 196.185 83.6618Z" fill="#969DA0"/>
<path d="M170.288 71.926V83.2783H164.842V63.6419H170.032V67.1064H170.262C170.697 65.9644 171.425 65.0609 172.448 64.3962C173.471 63.7229 174.711 63.3862 176.168 63.3862C177.532 63.3862 178.721 63.6845 179.735 64.2811C180.749 64.8777 181.538 65.73 182.1 66.8379C182.663 67.9374 182.944 69.2499 182.944 70.7754V83.2783H177.498V71.747C177.506 70.5453 177.2 69.6078 176.577 68.9345C175.955 68.2527 175.099 67.9118 174.008 67.9118C173.275 67.9118 172.627 68.0695 172.065 68.3848C171.511 68.7001 171.076 69.1604 170.761 69.7655C170.454 70.3621 170.296 71.0823 170.288 71.926Z" fill="#969DA0"/>
<path d="M155.033 83.2784V63.642H160.479V83.2784H155.033ZM157.769 61.1108C156.959 61.1108 156.264 60.8423 155.685 60.3054C155.114 59.7599 154.828 59.1079 154.828 58.3494C154.828 57.5994 155.114 56.9559 155.685 56.419C156.264 55.8736 156.959 55.6008 157.769 55.6008C158.578 55.6008 159.269 55.8736 159.84 56.419C160.419 56.9559 160.709 57.5994 160.709 58.3494C160.709 59.1079 160.419 59.7599 159.84 60.3054C159.269 60.8423 158.578 61.1108 157.769 61.1108Z" fill="#969DA0"/>
<path d="M151.156 69.2413L146.17 69.5482C146.085 69.122 145.902 68.7385 145.621 68.3976C145.339 68.0482 144.969 67.7712 144.508 67.5666C144.057 67.3536 143.515 67.247 142.885 67.247C142.041 67.247 141.329 67.426 140.75 67.784C140.17 68.1334 139.881 68.6021 139.881 69.1902C139.881 69.659 140.068 70.0553 140.443 70.3791C140.818 70.703 141.462 70.9629 142.373 71.159L145.927 71.8749C147.837 72.2669 149.26 72.8976 150.197 73.7669C151.135 74.6362 151.604 75.7783 151.604 77.193C151.604 78.48 151.224 79.6092 150.466 80.5808C149.716 81.5524 148.685 82.3109 147.372 82.8564C146.068 83.3933 144.564 83.6618 142.859 83.6618C140.26 83.6618 138.189 83.1206 136.646 82.0382C135.112 80.9473 134.213 79.4644 133.949 77.5894L139.305 77.3081C139.467 78.1007 139.859 78.7058 140.481 79.1234C141.104 79.5325 141.9 79.7371 142.872 79.7371C143.827 79.7371 144.594 79.5538 145.173 79.1874C145.761 78.8124 146.06 78.3308 146.068 77.7428C146.06 77.2484 145.851 76.8436 145.442 76.5283C145.033 76.2044 144.402 75.9573 143.55 75.7868L140.149 75.1092C138.231 74.7257 136.804 74.0609 135.866 73.1149C134.937 72.1689 134.473 70.9629 134.473 69.497C134.473 68.2357 134.814 67.149 135.496 66.2371C136.186 65.3252 137.153 64.622 138.398 64.1277C139.65 63.6334 141.116 63.3862 142.795 63.3862C145.275 63.3862 147.227 63.9104 148.65 64.9587C150.082 66.007 150.917 67.4345 151.156 69.2413Z" fill="#969DA0"/>
<path d="M125.016 74.9177V63.6421H130.462V83.2785H125.233V79.7117H125.029C124.586 80.8623 123.848 81.787 122.817 82.4858C121.794 83.1847 120.546 83.5341 119.071 83.5341C117.759 83.5341 116.604 83.2358 115.607 82.6392C114.61 82.0427 113.83 81.1946 113.267 80.0952C112.713 78.9958 112.432 77.679 112.424 76.1449V63.6421H117.87V75.1733C117.878 76.3324 118.189 77.2486 118.803 77.9219C119.416 78.5952 120.239 78.9319 121.27 78.9319C121.926 78.9319 122.54 78.7827 123.111 78.4844C123.682 78.1776 124.142 77.7259 124.492 77.1293C124.85 76.5327 125.024 75.7955 125.016 74.9177Z" fill="#969DA0"/>
<path d="M89.6392 83.2785V57.0967H95.0852V66.9404H95.2514C95.49 66.412 95.8352 65.8751 96.2869 65.3296C96.7471 64.7757 97.3437 64.3154 98.0767 63.949C98.8181 63.574 99.7386 63.3865 100.838 63.3865C102.27 63.3865 103.591 63.7615 104.801 64.5115C106.011 65.2529 106.979 66.3737 107.703 67.8737C108.428 69.3651 108.79 71.2359 108.79 73.4859C108.79 75.6762 108.436 77.5257 107.729 79.0342C107.03 80.5342 106.075 81.672 104.865 82.4475C103.663 83.2146 102.317 83.5981 100.825 83.5981C99.7684 83.5981 98.8693 83.4234 98.1278 83.074C97.3948 82.7245 96.794 82.2856 96.3252 81.7572C95.8565 81.2203 95.4985 80.6791 95.2514 80.1336H95.0085V83.2785H89.6392ZM94.9701 73.4603C94.9701 74.6279 95.1321 75.6464 95.4559 76.5157C95.7798 77.385 96.2485 78.0626 96.8622 78.5484C97.4758 79.0257 98.2215 79.2643 99.0994 79.2643C99.9858 79.2643 100.736 79.0214 101.349 78.5356C101.963 78.0413 102.428 77.3595 102.743 76.4901C103.067 75.6123 103.229 74.6024 103.229 73.4603C103.229 72.3268 103.071 71.3296 102.756 70.4688C102.44 69.608 101.976 68.9347 101.362 68.449C100.749 67.9632 99.9943 67.7203 99.0994 67.7203C98.213 67.7203 97.463 67.9546 96.8494 68.4234C96.2443 68.8921 95.7798 69.5569 95.4559 70.4177C95.1321 71.2785 94.9701 72.2927 94.9701 73.4603Z" fill="#969DA0"/>
<path fill-rule="evenodd" clip-rule="evenodd" d="M58.5408 64.5283L64.4319 70.4194L58.8226 76.0286L52.9315 70.1375L58.5408 64.5283ZM52.5007 58.4882L48.8072 54.7947C48.5966 54.5841 48.5966 54.2425 48.8072 54.0318L54.0843 48.7547C54.295 48.544 54.6366 48.544 54.8473 48.7547L72.8879 66.7953C74.8894 68.7968 74.8894 72.0419 72.8879 74.0434L64.8627 82.0687L68.5562 85.7622C68.7669 85.9728 68.7669 86.3144 68.5562 86.5251L63.2791 91.8022C63.0684 92.0129 62.7268 92.0129 62.5161 91.8022L44.4755 73.7615C42.474 71.76 42.474 68.515 44.4755 66.5135L52.5007 58.4882Z" fill="#969DA0"/>
</svg>
