<svg width="284" height="140" viewBox="0 0 284 140" fill="none" xmlns="http://www.w3.org/2000/svg">
<rect opacity="0.3" width="284" height="140" rx="8" fill="#F0F0F0"/>
<path d="M229.191 61.4487C234.411 61.4487 237.831 65.0847 237.831 69.9447C237.831 70.7727 237.687 71.5287 237.543 72.2127H224.655C224.943 75.0927 227.355 76.6047 230.055 76.6047C232.179 76.6047 233.763 75.7047 234.879 74.5527L237.471 77.6487C235.203 79.8087 232.863 80.6727 229.839 80.6727C223.791 80.6727 219.795 76.4607 219.795 71.0967C219.795 65.7327 223.719 61.4487 229.191 61.4487ZM229.155 65.3727C226.851 65.3727 225.051 66.7407 224.655 69.0447H233.259V69.0087C233.079 66.7407 231.351 65.3727 229.155 65.3727Z" fill="#969DA0"/>
<path d="M206.072 61.8807H208.808V56.8767H213.344V61.8807H217.7V65.6247H213.344V73.7967C213.344 75.5607 214.208 76.4607 215.9 76.4607C216.44 76.4607 217.34 76.3887 218.168 75.8487V79.9527C217.34 80.3847 216.224 80.6727 214.676 80.6727C210.932 80.6727 208.664 78.4767 208.664 74.4807V65.6247H206.072V61.8807Z" fill="#969DA0"/>
<path d="M185.403 61.8809H190.083V72.4649C190.083 75.0929 191.631 76.4969 193.791 76.4969C196.707 76.4969 198.003 73.8329 198.003 71.3489V61.8809H202.683V80.2409H198.183V77.7209C197.031 79.6289 195.231 80.6729 192.531 80.6729C188.211 80.6729 185.403 77.8649 185.403 73.0049V61.8809Z" fill="#969DA0"/>
<path d="M170.458 61.8807H173.194V56.8767H177.73V61.8807H182.086V65.6247H177.73V73.7967C177.73 75.5607 178.594 76.4607 180.286 76.4607C180.826 76.4607 181.726 76.3887 182.554 75.8487V79.9527C181.726 80.3847 180.61 80.6727 179.062 80.6727C175.318 80.6727 173.05 78.4767 173.05 74.4807V65.6247H170.458V61.8807Z" fill="#969DA0"/>
<path d="M162.383 80.2408V61.8808H167.063V80.2408H162.383ZM164.687 53.9248C166.163 53.9248 167.387 55.0048 167.387 56.5528C167.387 58.1008 166.163 59.2168 164.687 59.2168C163.139 59.2168 161.987 58.1008 161.987 56.5528C161.987 55.0048 163.139 53.9248 164.687 53.9248Z" fill="#969DA0"/>
<path d="M147.009 61.8807H149.745V56.8767H154.281V61.8807H158.637V65.6247H154.281V73.7967C154.281 75.5607 155.145 76.4607 156.837 76.4607C157.377 76.4607 158.277 76.3887 159.105 75.8487V79.9527C158.277 80.3847 157.161 80.6727 155.613 80.6727C151.869 80.6727 149.601 78.4767 149.601 74.4807V65.6247H147.009V61.8807Z" fill="#969DA0"/>
<path d="M137.876 80.6727C134.564 80.6727 131.72 79.1247 130.316 76.5327L133.484 74.1927C134.492 75.7767 135.896 76.8927 137.876 76.8927C139.604 76.8927 140.648 76.2807 140.648 75.3087C140.648 74.1567 139.676 73.6887 136.688 72.6807C132.944 71.4207 130.928 69.9447 130.928 66.9207C130.928 63.7527 134.024 61.4487 137.984 61.4487C141.008 61.4487 143.492 62.8887 144.68 65.0847L141.548 67.3527C140.792 66.0927 139.64 65.1927 137.912 65.1927C136.436 65.1927 135.32 65.8767 135.32 66.8847C135.32 67.8567 136.292 68.3607 139.136 69.3687C142.628 70.6287 145.04 71.8527 145.04 75.2007C145.04 78.2967 142.124 80.6727 137.876 80.6727Z" fill="#969DA0"/>
<path d="M109.684 61.8807H114.184V64.4007C115.336 62.4927 117.136 61.4487 119.836 61.4487C124.156 61.4487 126.964 64.2567 126.964 69.1167V80.2407H122.284V69.6567C122.284 67.0287 120.736 65.6247 118.576 65.6247C115.66 65.6247 114.364 68.2527 114.364 70.7727V80.2407H109.684V61.8807Z" fill="#969DA0"/>
<path d="M99.6641 80.2408V61.8808H104.344V80.2408H99.6641ZM101.968 53.9248C103.444 53.9248 104.668 55.0048 104.668 56.5528C104.668 58.1008 103.444 59.2168 101.968 59.2168C100.42 59.2168 99.2681 58.1008 99.2681 56.5528C99.2681 55.0048 100.42 53.9248 101.968 53.9248Z" fill="#969DA0"/>
<path fill-rule="evenodd" clip-rule="evenodd" d="M55.1792 50.5884C48.4976 53.8264 43.8904 60.6735 43.8904 68.5967C43.8904 79.6424 52.8447 88.5967 63.8904 88.5967C71.8135 88.5967 78.6606 83.9894 81.8987 77.3079L63.8904 77.3079C59.1092 77.3079 55.2276 73.4559 55.1797 68.686H55.1792V68.6073L55.1792 68.5967L55.1792 68.586V50.5884ZM83.614 71.9289C83.7958 70.8452 83.8904 69.732 83.8904 68.5967C83.8904 57.551 74.9361 48.5967 63.8904 48.5967C62.7551 48.5967 61.6419 48.6913 60.5582 48.873V60.5455C61.5847 60.1202 62.7101 59.8855 63.8904 59.8855C68.7015 59.8855 72.6016 63.7856 72.6016 68.5967C72.6016 69.7769 72.3669 70.9024 71.9416 71.9289H83.614Z" fill="#969DA0"/>
</svg>
